<?xml version="1.0"?>
<svg xmlns="http://www.w3.org/2000/svg" xmlns:xlink="http://www.w3.org/1999/xlink" version="1.1" id="Capa_1" x="0px" y="0px" viewBox="0 0 512 512" style="enable-background:new 0 0 512 512;" xml:space="preserve" width="512px" height="512px"><g><path style="fill:#ED8A19;" d="M401.067,324.267c0-80.119-64.947-145.067-145.067-145.067s-145.067,64.947-145.067,145.067  c0,14.848,2.253,29.175,6.4,42.667h277.333C398.814,353.442,401.067,339.115,401.067,324.267z" data-original="#ED8A19"/><path style="fill:#AFB6BB;" d="M477.867,34.133c-3.26,0-6.349,0.666-9.216,1.775C465.519,20.301,451.738,8.533,435.2,8.533  s-30.319,11.767-33.451,27.375c-2.867-1.109-5.956-1.775-9.216-1.775c-14.14,0-25.6,11.46-25.6,25.6s11.46,25.6,25.6,25.6h85.333  c14.14,0,25.6-11.46,25.6-25.6S492.006,34.133,477.867,34.133z" data-original="#AFB6BB"/><path style="fill:#E7ECED;" d="M119.467,76.8c-3.26,0-6.349,0.666-9.216,1.775C107.119,62.967,93.338,51.2,76.8,51.2  S46.481,62.967,43.349,78.575c-2.867-1.109-5.956-1.775-9.216-1.775c-14.14,0-25.6,11.46-25.6,25.6s11.46,25.6,25.6,25.6h85.333  c14.14,0,25.6-11.46,25.6-25.6S133.606,76.8,119.467,76.8z" data-original="#E7ECED"/><g>
	<path style="fill:#FFFFFF" d="M503.467,375.467H8.533c-4.71,0-8.533-3.823-8.533-8.533s3.823-8.533,8.533-8.533h494.933   c4.71,0,8.533,3.823,8.533,8.533S508.177,375.467,503.467,375.467z" data-original="#4D007E" class="active-path" data-old_color="#ffffff"/>
	<path style="fill:#FFFFFF" d="M256,153.6c-4.71,0-8.533-3.823-8.533-8.533v-51.2c0-4.71,3.823-8.533,8.533-8.533   c4.71,0,8.533,3.823,8.533,8.533v51.2C264.533,149.777,260.71,153.6,256,153.6z" data-original="#4D007E" class="active-path" data-old_color="#ffffff"/>
	<path style="fill:#FFFFFF" d="M477.867,93.867h-85.333c-18.825,0-34.133-15.309-34.133-34.133   c0-19.977,17.596-36.036,37.615-33.946C402.645,10.445,417.954,0,435.2,0c17.246,0,32.555,10.445,39.185,25.788   C494.421,23.706,512,39.757,512,59.733C512,78.558,496.691,93.867,477.867,93.867z M392.533,42.667   c-9.412,0-17.067,7.654-17.067,17.067S383.121,76.8,392.533,76.8h85.333c9.412,0,17.067-7.654,17.067-17.067   c0-11.418-11.418-20.412-23.202-15.863c-2.347,0.905-4.975,0.734-7.185-0.478c-2.21-1.212-3.763-3.337-4.267-5.803   c-2.381-11.887-12.928-20.523-25.079-20.523c-12.151,0-22.699,8.636-25.088,20.523c-0.495,2.466-2.057,4.591-4.267,5.803   c-2.21,1.212-4.838,1.382-7.185,0.478C396.604,43.068,394.539,42.667,392.533,42.667z" data-original="#4D007E" class="active-path" data-old_color="#ffffff"/>
	<path style="fill:#FFFFFF" d="M119.467,136.533H34.133C15.309,136.533,0,121.225,0,102.4c0-19.977,17.63-36.087,37.615-33.946   c6.63-15.343,21.939-25.788,39.185-25.788s32.555,10.445,39.185,25.788C136.013,66.321,153.6,82.423,153.6,102.4   C153.6,121.225,138.291,136.533,119.467,136.533z M34.133,85.333c-9.412,0-17.067,7.654-17.067,17.067s7.654,17.067,17.067,17.067   h85.333c9.412,0,17.067-7.654,17.067-17.067c0-11.418-11.418-20.412-23.202-15.863c-2.347,0.896-4.975,0.725-7.185-0.478   c-2.21-1.203-3.763-3.337-4.267-5.803C99.499,68.369,88.951,59.733,76.8,59.733s-22.699,8.636-25.088,20.523   c-0.495,2.466-2.057,4.591-4.267,5.803c-2.21,1.212-4.838,1.382-7.185,0.478C38.204,85.734,36.139,85.333,34.133,85.333z" data-original="#4D007E" class="active-path" data-old_color="#ffffff"/>
	<path style="fill:#FFFFFF" d="M196.275,238.933c-2.79,0-5.521-1.365-7.159-3.883c-2.569-3.951-1.451-9.233,2.5-11.802   c18.799-12.237,40.457-18.449,64.358-18.449c0.009,0,0.017,0,0.026,0c4.71,0,8.533,3.823,8.533,8.533s-3.823,8.533-8.533,8.533   c0,0-0.017,0-0.026,0c-20.54,0-39.066,5.274-55.057,15.684C199.484,238.49,197.871,238.933,196.275,238.933z" data-original="#4D007E" class="active-path" data-old_color="#ffffff"/>
	<path style="fill:#FFFFFF" d="M145.067,332.8c-4.71,0-8.533-3.823-8.533-8.533c0-21.137,6.835-45.107,18.287-64.137   c2.432-4.028,7.68-5.342,11.716-2.901c4.036,2.432,5.342,7.671,2.91,11.716c-9.779,16.222-15.846,37.427-15.846,55.322   C153.6,328.977,149.777,332.8,145.067,332.8z" data-original="#4D007E" class="active-path" data-old_color="#ffffff"/>
	<path style="fill:#FFFFFF" d="M486.4,332.8h-51.2c-4.71,0-8.533-3.823-8.533-8.533s3.823-8.533,8.533-8.533h51.2   c4.71,0,8.533,3.823,8.533,8.533S491.11,332.8,486.4,332.8z" data-original="#4D007E" class="active-path" data-old_color="#ffffff"/>
	<path style="fill:#FFFFFF" d="M76.8,332.8H25.6c-4.71,0-8.533-3.823-8.533-8.533s3.823-8.533,8.533-8.533h51.2   c4.71,0,8.533,3.823,8.533,8.533S81.51,332.8,76.8,332.8z" data-original="#4D007E" class="active-path" data-old_color="#ffffff"/>
	<path style="fill:#FFFFFF" d="M128,204.8c-2.185,0-4.369-0.836-6.033-2.5l-34.133-34.133c-3.337-3.337-3.337-8.73,0-12.066   c3.328-3.337,8.738-3.337,12.066,0l34.133,34.133c3.337,3.337,3.337,8.73,0,12.066C132.369,203.964,130.185,204.8,128,204.8z" data-original="#4D007E" class="active-path" data-old_color="#ffffff"/>
	<path style="fill:#FFFFFF" d="M384,204.8c-2.185,0-4.369-0.836-6.033-2.5c-3.337-3.337-3.337-8.73,0-12.066L412.1,156.1   c3.328-3.337,8.738-3.337,12.066,0c3.337,3.337,3.337,8.73,0,12.066L390.033,202.3C388.369,203.964,386.185,204.8,384,204.8z" data-original="#4D007E" class="active-path" data-old_color="#ffffff"/>
	<path style="fill:#FFFFFF" d="M394.667,375.467H117.333c-3.746,0-7.057-2.449-8.158-6.025   c-4.497-14.635-6.775-29.833-6.775-45.175c0-84.693,68.907-153.6,153.6-153.6s153.6,68.907,153.6,153.6   c0,15.343-2.278,30.541-6.775,45.175C401.724,373.018,398.413,375.467,394.667,375.467z M123.785,358.4h264.422   c2.876-11.136,4.326-22.588,4.326-34.133c0-75.281-61.244-136.533-136.533-136.533s-136.533,61.252-136.533,136.533   C119.467,335.812,120.917,347.264,123.785,358.4z" data-original="#4D007E" class="active-path" data-old_color="#ffffff"/>
	<path style="fill:#FFFFFF" d="M256,512c-4.71,0-8.533-3.823-8.533-8.533v-102.4c0-4.71,3.823-8.533,8.533-8.533   c4.71,0,8.533,3.823,8.533,8.533v102.4C264.533,508.177,260.71,512,256,512z" data-original="#4D007E" class="active-path" data-old_color="#ffffff"/>
	<path style="fill:#FFFFFF" d="M256,512c-2.185,0-4.369-0.836-6.033-2.5L207.3,466.833c-3.337-3.337-3.337-8.73,0-12.066   c3.328-3.337,8.738-3.337,12.066,0l42.667,42.667c3.337,3.337,3.337,8.73,0,12.066C260.369,511.164,258.185,512,256,512z" data-original="#4D007E" class="active-path" data-old_color="#ffffff"/>
	<path style="fill:#FFFFFF" d="M256,512c-2.185,0-4.369-0.836-6.033-2.5c-3.337-3.337-3.337-8.73,0-12.066l42.667-42.667   c3.328-3.337,8.738-3.337,12.066,0c3.337,3.337,3.337,8.73,0,12.066L262.033,509.5C260.369,511.164,258.185,512,256,512z" data-original="#4D007E" class="active-path" data-old_color="#ffffff"/>
</g></g> </svg>
